<svg width="19" height="19" viewBox="0.38787841796875 0.390350341796875 18.2242431640625 18.21929931640625" fill="none" xmlns="http://www.w3.org/2000/svg">
<path d="M1.04671 18.9948C0.902065 18.9946 0.759054 18.9642 0.626771 18.9057C0.494489 18.8472 0.37583 18.7618 0.278338 18.655C0.179085 18.549 0.103347 18.4233 0.0560929 18.286C0.00883872 18.1487 -0.00886466 18.003 0.00414327 17.8584L0.259572 15.0498L12.0593 3.25415L15.7469 6.94067L3.95026 18.7352L1.14158 18.9907C1.11004 18.9936 1.07838 18.995 1.04671 18.9948ZM16.483 6.20357L12.7964 2.51706L15.0077 0.305771C15.1046 0.208837 15.2195 0.131938 15.3461 0.0794717C15.4727 0.0270053 15.6083 0 15.7453 0C15.8824 0 16.018 0.0270053 16.1446 0.0794717C16.2712 0.131938 16.3861 0.208837 16.483 0.305771L18.6942 2.51706C18.7912 2.61388 18.8681 2.72887 18.9205 2.85543C18.973 2.982 19 3.11766 19 3.25467C19 3.39168 18.973 3.52735 18.9205 3.65391C18.8681 3.78048 18.7912 3.89546 18.6942 3.99229L16.484 6.20253L16.483 6.20357Z" fill="#0066E6"/>
</svg>
