<svg width="177" height="194" viewBox="0.49748992919921875 0.213226318359375 176.00502014160156 193.57354736328125" fill="none" xmlns="http://www.w3.org/2000/svg">
<path fill-rule="evenodd" clip-rule="evenodd" d="M74.4691 111.543C48.9768 114.215 29.8382 130.347 12.7884 150.991C4.92938 160.52 -6.60156 117.059 4.76492 109.619C26.6598 95.2445 48.1388 94.6579 69.4501 98.5874C71.1262 102.933 72.7961 107.194 74.4691 111.543ZM93.9398 116.224C83.4952 139.54 87.9245 164.198 97.202 189.268C101.544 200.886 58.1705 189.103 57.4194 175.561C55.914 149.401 66.1941 130.514 80.1523 114.051C84.7461 114.718 89.3461 115.469 93.9398 116.224ZM82.4058 77.7758C92.9373 54.4594 88.4242 29.802 79.1467 4.73179C74.885 -6.88609 118.262 4.89937 119.013 18.4355C120.519 44.5951 110.238 63.4854 96.1995 79.9516C91.5995 79.2812 87.0058 78.527 82.4058 77.7758ZM68.699 92.4013C53.7413 71.6766 30.1702 63.1502 3.75918 58.721C-8.43914 56.632 23.4845 24.9567 35.6021 31.059C59.0055 42.8414 70.2075 61.145 77.4737 81.5376C74.5499 85.132 71.626 88.8101 68.699 92.4013ZM107.647 101.595C122.691 122.326 146.262 130.849 172.67 135.279C184.791 137.368 152.948 169.043 140.83 162.941C117.427 151.158 106.225 132.855 98.9558 112.462C101.883 108.868 104.807 105.189 107.647 101.595ZM101.963 82.4564C127.372 79.7808 146.514 63.6499 163.56 43.009C171.5 33.4831 182.95 76.9407 171.668 84.3777C149.686 98.7549 128.291 99.3386 106.979 95.4121C105.306 91.0636 103.636 86.7211 101.963 82.4564Z" fill="#353E43"/>
</svg>
