<svg width="228" height="227" viewBox="0 0 228 227" fill="none" xmlns="http://www.w3.org/2000/svg">
<path fill-rule="evenodd" clip-rule="evenodd" d="M113.502 10.0933C170.624 10.0933 216.907 56.3761 216.907 113.502C216.907 170.624 170.624 216.907 113.502 216.907C56.373 216.907 10.0902 170.624 10.0902 113.502C10.0902 56.3761 56.373 10.0933 113.502 10.0933ZM206.733 198.145C210.905 198.145 214.407 201.647 214.407 205.816C214.407 210.068 210.905 213.487 206.733 213.487C202.48 213.487 199.061 210.068 199.061 205.816C199.061 201.647 202.48 198.145 206.733 198.145ZM20.3509 198.145C24.6032 198.145 28.0223 201.647 28.0223 205.816C28.0223 210.068 24.6032 213.487 20.3509 213.487C16.0955 213.487 12.6763 210.068 12.6763 205.816C12.6763 201.647 16.0955 198.145 20.3509 198.145ZM206.733 13.5093C210.905 13.5093 214.407 16.9317 214.407 21.184C214.407 25.3526 210.905 28.8554 206.733 28.8554C202.48 28.8554 199.061 25.3526 199.061 21.184C199.061 16.9317 202.48 13.5093 206.733 13.5093ZM20.3509 13.5093C24.6032 13.5093 28.0223 16.9317 28.0223 21.184C28.0223 25.3526 24.6032 28.8554 20.3509 28.8554C16.0955 28.8554 12.6763 25.3526 12.6763 21.184C12.6763 16.9317 16.0955 13.5093 20.3509 13.5093ZM15.761 0H211.236C219.911 0 227.084 7.08917 227.084 15.7641V211.236C227.084 219.911 219.911 227 211.236 227H15.761C7.08917 227 0 219.911 0 211.236V15.7641C0 7.08917 7.08917 0 15.761 0Z" fill="#3F4A4D"/>
</svg>
