<svg width="94" height="94" viewBox="0.25897216796875 0.3007850646972656 93.4820556640625 93.39842987060547" fill="none" xmlns="http://www.w3.org/2000/svg">
<path fill-rule="evenodd" clip-rule="evenodd" d="M6.37171 23.226C10.5635 16.1006 16.5179 10.2302 23.6432 6.11944C29.0963 13.9175 33.0389 22.4722 36.2217 31.4443C33.2881 35.0506 30.3545 38.741 27.4177 42.3442C21.6346 34.2939 14.5061 28.0904 6.37171 23.226ZM6.11944 70.1854C2.2609 63.3932 0 55.4272 0 46.9596C0 46.8724 0 46.7914 0 46.7914C9.38942 45.9536 18.7819 46.7913 28.1713 48.5509C29.853 52.9108 31.5285 57.1866 33.207 61.5496C23.31 62.6396 14.3379 65.6573 6.11944 70.1854ZM46.7073 93.9159C38.1556 93.9159 30.1862 91.5709 23.31 87.5442C27.3367 78.9925 32.7866 71.2754 38.9092 64.0659C43.5183 64.7355 48.1336 65.4892 52.7426 66.2459C48.719 75.3021 46.8723 84.5265 46.7073 93.9159ZM87.5442 70.6899C83.3493 77.8184 77.398 83.6856 70.2695 87.7933C64.9006 79.9983 60.9611 71.4437 57.7753 62.4716C60.712 58.8653 63.6456 55.1748 66.4951 51.5686C72.3655 59.6189 79.4939 65.8255 87.5442 70.6899ZM47.2927 0C55.7634 0 63.8138 2.34812 70.69 6.37172C66.5792 14.9265 61.2133 22.6404 55.0098 29.853C50.3945 29.1803 45.7855 28.4236 41.1702 27.67C45.2809 18.6138 47.1245 9.38942 47.2927 0ZM60.7929 32.3661C70.69 31.2762 79.578 28.2585 87.7965 23.7304C91.7391 30.5225 94 38.4888 94 46.9596C94 47.0436 94 47.1245 94 47.1245C84.5234 47.9654 75.134 47.1246 65.8255 45.365C64.147 41.002 62.4715 36.6451 60.7929 32.3661Z" fill="#2B3136"/>
</svg>
