<svg width="8" height="13" viewBox="0 0 8 13" fill="none" xmlns="http://www.w3.org/2000/svg">
<path d="M1.33333 1.28C0.979711 1.28 0.640573 1.41486 0.390524 1.65491C0.140476 1.89495 0 2.22053 0 2.56L0 11.52C0 11.8595 0.140476 12.1851 0.390524 12.4251C0.640573 12.6651 0.979711 12.8 1.33333 12.8H6.66667C7.02029 12.8 7.35943 12.6651 7.60948 12.4251C7.85952 12.1851 8 11.8595 8 11.52V2.56C8 2.22053 7.85952 1.89495 7.60948 1.65491C7.35943 1.41486 7.02029 1.28 6.66667 1.28H5.33333V3.8147e-06H2.66667V1.28H1.33333Z" fill="#FDFDFD"/>
</svg>
